<svg xmlns="http://www.w3.org/2000/svg" xmlns:xlink="http://www.w3.org/1999/xlink" viewBox="0 0 309.23 122.71"><defs><style>.cls-1{fill:#002e6c;}.cls-2{fill:url(#linear-gradient);}.cls-3{fill:#bcbec0;}</style><linearGradient id="linear-gradient" x1="11.33" y1="109.85" x2="69.85" y2="53.23" gradientUnits="userSpaceOnUse"><stop offset="0" stop-color="#002e6c"/><stop offset="0.82" stop-color="#00aeef"/></linearGradient></defs><title>Asset 1</title><g id="Layer_2" data-name="Layer 2"><g id="Layer_1-2" data-name="Layer 1"><path class="cls-1" d="M146,85.32l4.08,12.16h-1.25l-1.33-4h-5.15l-2.28,4h-1.36l7-12.16Zm-.39,2.55-2.59,4.49h4.09Z"/><path class="cls-1" d="M160.78,97.48h-1.17l.19-1.39a4.94,4.94,0,0,1-3.6,1.63,4,4,0,0,1-3-1.18,4.14,4.14,0,0,1-1.17-3,5.06,5.06,0,0,1,1.53-3.69,4.9,4.9,0,0,1,3.6-1.54,4,4,0,0,1,2,.47,4,4,0,0,1,1.45,1.47l.69-5.19h1.2Zm-4.43-.83a4,4,0,0,0,2-.52,3.78,3.78,0,0,0,1.45-1.51,4.4,4.4,0,0,0,.54-2.14,3.07,3.07,0,0,0-.88-2.28,3.12,3.12,0,0,0-2.29-.88,3.84,3.84,0,0,0-2.84,1.2,4,4,0,0,0-1.18,2.94,3,3,0,0,0,3.18,3.18Z"/><path class="cls-1" d="M172.39,97.48h-1.17l.18-1.39a4.94,4.94,0,0,1-3.6,1.63,4,4,0,0,1-3-1.18,4.14,4.14,0,0,1-1.17-3,5.06,5.06,0,0,1,1.53-3.69,4.9,4.9,0,0,1,3.6-1.54,4,4,0,0,1,2,.47,4,4,0,0,1,1.45,1.47l.69-5.19h1.2ZM168,96.65a4,4,0,0,0,2-.52,3.78,3.78,0,0,0,1.45-1.51,4.4,4.4,0,0,0,.54-2.14,3.07,3.07,0,0,0-.88-2.28,3.12,3.12,0,0,0-2.29-.88,3.84,3.84,0,0,0-2.84,1.2,4,4,0,0,0-1.18,2.94A3,3,0,0,0,168,96.65Z"/><path class="cls-1" d="M176.06,88.48h1.09l-1.17,9h-1.13Zm.91-3.7a.93.93,0,0,1,.65,1.58.94.94,0,0,1-1.31,0,.93.93,0,0,1,0-1.31A.88.88,0,0,1,177,84.78Z"/><path class="cls-1" d="M188,90.43l-1,.55A3.34,3.34,0,0,0,184,89.36a4.52,4.52,0,0,0-2.17.53,3.88,3.88,0,0,0-1.54,1.47,3.92,3.92,0,0,0-.55,2,3.48,3.48,0,0,0,.41,1.7,2.85,2.85,0,0,0,1.16,1.16,3.65,3.65,0,0,0,1.76.4,4.87,4.87,0,0,0,2-.41,3.81,3.81,0,0,0,1.47-1.07l1,.67a5.71,5.71,0,0,1-1.94,1.43,6.12,6.12,0,0,1-2.43.45,4.57,4.57,0,0,1-3.33-1.16,4.12,4.12,0,0,1-1.2-3.1,4.94,4.94,0,0,1,1.57-3.68A5.29,5.29,0,0,1,184,88.25a4.91,4.91,0,0,1,2.41.57A3.93,3.93,0,0,1,188,90.43Z"/><path class="cls-1" d="M192.05,85.12h1.13l-.45,3.37h1.81l-.13,1H192.6l-1.06,8h-1.16l1.08-8h-1.54l.14-1h1.54Z"/><path class="cls-1" d="M196.14,88.48h1.09l-1.17,9h-1.13Zm.91-3.7a.93.93,0,0,1,.65,1.58.94.94,0,0,1-1.31,0,.93.93,0,0,1,0-1.31A.88.88,0,0,1,197.05,84.78Z"/><path class="cls-1" d="M203.82,88.25a4.18,4.18,0,0,1,2.11.55,3.88,3.88,0,0,1,1.5,1.53,4.54,4.54,0,0,1,.54,2.22,5.24,5.24,0,0,1-.69,2.63,4.88,4.88,0,0,1-1.84,1.87,5.2,5.2,0,0,1-2.62.66,4,4,0,0,1-3-1.19,4.13,4.13,0,0,1-1.17-3,5.3,5.3,0,0,1,.69-2.65,5,5,0,0,1,1.88-1.91A5.11,5.11,0,0,1,203.82,88.25Zm0,1.1a4,4,0,0,0-2,.54,3.71,3.71,0,0,0-1.46,1.48,4.27,4.27,0,0,0-.51,2.07,3.15,3.15,0,0,0,.88,2.31,3.05,3.05,0,0,0,2.27.89,3.8,3.8,0,0,0,2-.52,3.7,3.7,0,0,0,1.4-1.49,4.37,4.37,0,0,0,.52-2.09,3.44,3.44,0,0,0-.39-1.66,2.77,2.77,0,0,0-1.1-1.12A3.11,3.11,0,0,0,203.8,89.35Z"/><path class="cls-1" d="M210.85,88.48H212l-.18,1.4A4.08,4.08,0,0,1,215,88.25a3,3,0,0,1,2.25.86,3.11,3.11,0,0,1,.86,2.3,16.72,16.72,0,0,1-.18,1.94l-.56,4.13h-1.13l.56-4.13a16.2,16.2,0,0,0,.18-2,2.07,2.07,0,0,0-.57-1.53,2,2,0,0,0-1.5-.58A3.32,3.32,0,0,0,211.94,91a7.88,7.88,0,0,0-.66,2.55l-.52,3.89h-1.13Z"/><path class="cls-1" d="M232,87.57l-1.15.29a2.48,2.48,0,0,0-.76-1.22,1.74,1.74,0,0,0-1.14-.45,1.44,1.44,0,0,0-1.1.46,1.73,1.73,0,0,0-.43,1.23,2.7,2.7,0,0,0,.46,1.41,8.21,8.21,0,0,0,1.36,1.44,6.87,6.87,0,0,1,1.56,1.88,3.76,3.76,0,0,1,.44,1.71,3.3,3.3,0,0,1-.48,1.71,3.54,3.54,0,0,1-1.3,1.29,3.42,3.42,0,0,1-1.74.47,3,3,0,0,1-2-.74,4.19,4.19,0,0,1-1.23-2.18l1.13-.38a3.08,3.08,0,0,0,.86,1.62,2,2,0,0,0,1.37.53,2.05,2.05,0,0,0,1.52-.65,2.22,2.22,0,0,0,.64-1.61,2.86,2.86,0,0,0-.36-1.37,6.6,6.6,0,0,0-1.41-1.61,8.94,8.94,0,0,1-1.46-1.57,3.63,3.63,0,0,1-.55-1.92,2.8,2.8,0,0,1,.81-2.06,2.74,2.74,0,0,1,2-.81,2.78,2.78,0,0,1,1.81.65A3.73,3.73,0,0,1,232,87.57Z"/><path class="cls-1" d="M238.36,88.25a4.18,4.18,0,0,1,2.11.55,3.88,3.88,0,0,1,1.5,1.53,4.54,4.54,0,0,1,.54,2.22,5.24,5.24,0,0,1-.69,2.63A4.88,4.88,0,0,1,240,97.05a5.2,5.2,0,0,1-2.62.66,4,4,0,0,1-3-1.19,4.13,4.13,0,0,1-1.17-3,5.3,5.3,0,0,1,.69-2.65,5,5,0,0,1,1.88-1.91A5.11,5.11,0,0,1,238.36,88.25Zm0,1.1a4,4,0,0,0-2,.54,3.71,3.71,0,0,0-1.46,1.48,4.27,4.27,0,0,0-.51,2.07,3.15,3.15,0,0,0,.88,2.31,3.05,3.05,0,0,0,2.27.89,3.8,3.8,0,0,0,2-.52,3.7,3.7,0,0,0,1.4-1.49,4.37,4.37,0,0,0,.52-2.09,3.44,3.44,0,0,0-.39-1.66,2.77,2.77,0,0,0-1.1-1.12A3.11,3.11,0,0,0,238.34,89.35Z"/><path class="cls-1" d="M245.63,85h1.13l-1.68,12.47h-1.13Z"/><path class="cls-1" d="M249.31,88.48h1.16l-.54,3.77a20.39,20.39,0,0,0-.24,2.11,2.18,2.18,0,0,0,2.3,2.28,2.37,2.37,0,0,0,1.5-.5,2.71,2.71,0,0,0,.91-1.3,12.89,12.89,0,0,0,.33-1.86l.61-4.5h1.13L256,91.89a20.1,20.1,0,0,1-.66,3.47,3.42,3.42,0,0,1-1.25,1.69,3.58,3.58,0,0,1-2.19.66,3.22,3.22,0,0,1-2.4-1,3.27,3.27,0,0,1-.94-2.38,10.09,10.09,0,0,1,.1-1.33l.08-.79,0-.34Z"/><path class="cls-1" d="M260.49,85.12h1.13l-.45,3.37H263l-.13,1H261l-1.06,8h-1.16l1.08-8h-1.54l.14-1H260Z"/><path class="cls-1" d="M264.59,88.48h1.09l-1.17,9h-1.13Zm.91-3.7a.93.93,0,0,1,.65,1.58.94.94,0,0,1-1.31,0,.93.93,0,0,1,0-1.31A.88.88,0,0,1,265.49,84.78Z"/><path class="cls-1" d="M272.27,88.25a4.18,4.18,0,0,1,2.11.55,3.88,3.88,0,0,1,1.5,1.53,4.54,4.54,0,0,1,.54,2.22,5.24,5.24,0,0,1-.69,2.63,4.88,4.88,0,0,1-1.84,1.87,5.2,5.2,0,0,1-2.62.66,4,4,0,0,1-3-1.19,4.13,4.13,0,0,1-1.17-3,5.3,5.3,0,0,1,.69-2.65,5,5,0,0,1,1.88-1.91A5.11,5.11,0,0,1,272.27,88.25Zm0,1.1a4,4,0,0,0-2,.54,3.71,3.71,0,0,0-1.46,1.48,4.27,4.27,0,0,0-.51,2.07,3.15,3.15,0,0,0,.88,2.31,3.05,3.05,0,0,0,2.27.89,3.8,3.8,0,0,0,2-.52,3.7,3.7,0,0,0,1.4-1.49,4.37,4.37,0,0,0,.52-2.09,3.44,3.44,0,0,0-.39-1.66,2.77,2.77,0,0,0-1.1-1.12A3.11,3.11,0,0,0,272.24,89.35Z"/><path class="cls-1" d="M279.29,88.48h1.11l-.18,1.4a4.08,4.08,0,0,1,3.19-1.63,3,3,0,0,1,2.25.86,3.11,3.11,0,0,1,.86,2.3,16.72,16.72,0,0,1-.18,1.94l-.56,4.13h-1.13l.56-4.13a16.2,16.2,0,0,0,.18-2,2.07,2.07,0,0,0-.57-1.53,2,2,0,0,0-1.5-.58A3.32,3.32,0,0,0,280.38,91a7.88,7.88,0,0,0-.66,2.55l-.52,3.89h-1.13Z"/><path class="cls-1" d="M293.8,89.49l-.63.93a2.19,2.19,0,0,0-1.8-1.08,1.45,1.45,0,0,0-1,.39,1.15,1.15,0,0,0-.42.86,1.12,1.12,0,0,0,.26.7,4.8,4.8,0,0,0,1.13.9,6,6,0,0,1,1.7,1.46,2.61,2.61,0,0,1,.41,1.45,2.47,2.47,0,0,1-.79,1.88,2.88,2.88,0,0,1-2.06.74,3.43,3.43,0,0,1-2.81-1.48l.7-.82a2.84,2.84,0,0,0,2.18,1.22,1.64,1.64,0,0,0,1.17-.47,1.46,1.46,0,0,0,.5-1.09,1.53,1.53,0,0,0-.37-1,7.28,7.28,0,0,0-1.29-1,6,6,0,0,1-1.49-1.29,1.93,1.93,0,0,1-.36-1.14,2.24,2.24,0,0,1,.75-1.7,2.68,2.68,0,0,1,1.9-.7,2.73,2.73,0,0,1,1.23.27A3.5,3.5,0,0,1,293.8,89.49Z"/><path class="cls-1" d="M140,105.64h1.22l3,9.64,5.65-9.64h1.35l-7.13,12.16h-.28Z"/><path class="cls-1" d="M152.22,108.81h1.09l-1.18,9H151Zm.91-3.71a.93.93,0,1,1-.66.27A.89.89,0,0,1,153.13,105.1Z"/><path class="cls-1" d="M164.18,110.75l-1,.55a3.34,3.34,0,0,0-3.06-1.62,4.5,4.5,0,0,0-2.17.53,3.87,3.87,0,0,0-1.54,1.47,3.92,3.92,0,0,0-.55,2,3.47,3.47,0,0,0,.41,1.7,2.84,2.84,0,0,0,1.16,1.16,3.63,3.63,0,0,0,1.76.41,4.91,4.91,0,0,0,2-.41,3.81,3.81,0,0,0,1.47-1.07l1,.67a5.71,5.71,0,0,1-1.94,1.43,6.08,6.08,0,0,1-2.43.45,4.57,4.57,0,0,1-3.33-1.16,4.13,4.13,0,0,1-1.19-3.1,4.94,4.94,0,0,1,1.57-3.67,5.3,5.3,0,0,1,3.84-1.53,4.91,4.91,0,0,1,2.41.58A3.93,3.93,0,0,1,164.18,110.75Z"/><path class="cls-1" d="M168.21,105.44h1.13l-.45,3.37h1.81l-.13,1h-1.81l-1.06,8h-1.16l1.08-8h-1.54l.14-1h1.54Z"/><path class="cls-1" d="M176.59,108.57a4.16,4.16,0,0,1,2.11.55,3.89,3.89,0,0,1,1.5,1.53,4.56,4.56,0,0,1,.54,2.22,5.23,5.23,0,0,1-.69,2.63,4.87,4.87,0,0,1-1.84,1.87,5.18,5.18,0,0,1-2.62.66,4,4,0,0,1-3-1.19,4.12,4.12,0,0,1-1.17-3,5.3,5.3,0,0,1,.69-2.65,5,5,0,0,1,1.88-1.91A5.09,5.09,0,0,1,176.59,108.57Zm0,1.1a4,4,0,0,0-2,.54,3.69,3.69,0,0,0-1.46,1.47,4.27,4.27,0,0,0-.51,2.07,3.15,3.15,0,0,0,.88,2.31,3,3,0,0,0,2.27.89,3.82,3.82,0,0,0,2-.52,3.72,3.72,0,0,0,1.4-1.49,4.37,4.37,0,0,0,.52-2.09,3.44,3.44,0,0,0-.39-1.66,2.77,2.77,0,0,0-1.1-1.12A3.11,3.11,0,0,0,176.57,109.67Z"/><path class="cls-1" d="M183.15,108.81h1.16l-.16,1.13a3.35,3.35,0,0,1,1.12-1,2.75,2.75,0,0,1,1.34-.36,2.54,2.54,0,0,1,1,.23l-.55,1.06a2,2,0,0,0-.72-.17,2,2,0,0,0-1.19.42,3,3,0,0,0-1,1.23,10.39,10.39,0,0,0-.62,2.65l-.53,3.81h-1.13Z"/><path class="cls-1" d="M188.49,108.81h1.09l-1.17,9h-1.13Zm.91-3.71a.93.93,0,1,1-.66.27A.9.9,0,0,1,189.4,105.1Z"/><path class="cls-1" d="M199.78,117.8h-1.17l.18-1.35a4.88,4.88,0,0,1-3.57,1.58,4.06,4.06,0,0,1-3-1.18,4.13,4.13,0,0,1-1.18-3,5,5,0,0,1,1.54-3.69,4.94,4.94,0,0,1,3.61-1.54,4,4,0,0,1,2,.47,3.81,3.81,0,0,1,1.43,1.47l.21-1.71H201Zm-4.43-.83a4,4,0,0,0,2-.53,3.79,3.79,0,0,0,1.45-1.51,4.43,4.43,0,0,0,.54-2.14,3.07,3.07,0,0,0-.88-2.27,3.11,3.11,0,0,0-2.29-.87,3.82,3.82,0,0,0-2.83,1.2,4,4,0,0,0-1.18,2.94,3,3,0,0,0,3.17,3.18Z"/><path class="cls-1" d="M210.46,105.64h1.23L210,117.8h-1.23Z"/><path class="cls-1" d="M213.87,108.81H215l-.18,1.4a4.08,4.08,0,0,1,3.19-1.63,3.06,3.06,0,0,1,2.25.86,3.11,3.11,0,0,1,.86,2.3,16.69,16.69,0,0,1-.18,1.94l-.56,4.13h-1.13l.56-4.12a16.23,16.23,0,0,0,.18-2,2.08,2.08,0,0,0-.57-1.53,2,2,0,0,0-1.5-.58,3.31,3.31,0,0,0-2.91,1.75,7.9,7.9,0,0,0-.66,2.55l-.52,3.89h-1.13Z"/><path class="cls-1" d="M232.55,110.75l-1,.55a3.34,3.34,0,0,0-3.06-1.62,4.5,4.5,0,0,0-2.17.53,3.87,3.87,0,0,0-1.54,1.47,3.92,3.92,0,0,0-.55,2,3.47,3.47,0,0,0,.41,1.7,2.84,2.84,0,0,0,1.16,1.16,3.63,3.63,0,0,0,1.76.41,4.91,4.91,0,0,0,2-.41,3.81,3.81,0,0,0,1.47-1.07l1,.67a5.71,5.71,0,0,1-1.94,1.43,6.09,6.09,0,0,1-2.43.45,4.57,4.57,0,0,1-3.33-1.16,4.12,4.12,0,0,1-1.2-3.1,4.94,4.94,0,0,1,1.57-3.67,5.29,5.29,0,0,1,3.84-1.53,4.91,4.91,0,0,1,2.41.58A3.93,3.93,0,0,1,232.55,110.75Z"/><path class="cls-1" d="M235.11,116a1,1,0,1,1-.71.3A1,1,0,0,1,235.11,116Z"/><path class="cls-1" d="M174.26,6.41l31.22,59.38h-7.23L187.72,46.25H158.88L148.45,65.79H141L172.62,6.41ZM173.41,19,161.94,40.52h22.89Z"/><path class="cls-1" d="M205.31,54.73l5.69-3q6,9.81,13.88,9.81a14.67,14.67,0,0,0,6.33-1.39,10.69,10.69,0,0,0,4.51-3.73,8.85,8.85,0,0,0,1.55-5A9.36,9.36,0,0,0,235,45.56q-3.14-4-11.47-9.53t-10.42-8.11a13.8,13.8,0,0,1-3.55-9.08,12.6,12.6,0,0,1,2.09-7.06,14.3,14.3,0,0,1,5.89-5,18.73,18.73,0,0,1,8.26-1.84A19.38,19.38,0,0,1,234.64,7q4.12,2.08,8.72,7.65l-5.46,3.67q-3.78-4.44-6.44-5.85a12.19,12.19,0,0,0-5.8-1.41A9.89,9.89,0,0,0,219,13.23a6.78,6.78,0,0,0-2.57,5.37,8.28,8.28,0,0,0,.91,3.75,14.08,14.08,0,0,0,3.32,4q1.32,1.13,8.65,5.93,8.69,5.69,11.93,10.13a15.09,15.09,0,0,1,3.23,8.92q0,6.46-5.53,11.22a19.9,19.9,0,0,1-13.45,4.76,21.59,21.59,0,0,1-11.06-2.89Q209.49,61.51,205.31,54.73Z"/><path class="cls-1" d="M249.92,6.41h7.28l22.19,45.88L301.95,6.41h7.28L280.1,65.79h-1.46Z"/><path class="cls-2" d="M37.84,106.67A15.41,15.41,0,1,0,16.41,86.12c-3-14.79-4.26-37.07,9.71-53.75l-6.73-6.73c-28.77,33.47-17,94.69-17,94.69s61.23,11.76,94.69-17L90.5,96.74C74.23,110.36,52.62,109.54,37.84,106.67Z"/><path class="cls-3" d="M85.43,16.54a15.41,15.41,0,1,0,21,21.68C109.36,53.55,110,76.1,95,92.48l6.57,6.57c31-33,18.8-96.68,18.8-96.68S56.62-9.86,23.65,21.18l6.73,6.73C47,12.6,70.09,13.53,85.43,16.54Z"/></g></g></svg>